<svg width="75" height="18" viewBox="0 0 75 18" fill="none" xmlns="http://www.w3.org/2000/svg">
<path d="M18.36 8.26C18.36 10.876 17.406 13.09 15.498 14.902L16.002 15.73L15.516 16.018H14.958L15.462 15.73L14.94 14.902C16.848 13.09 17.802 10.876 17.802 8.26C17.802 6.652 17.412 5.152 16.632 3.76C15.876 2.404 14.844 1.312 13.536 0.483999H14.076C15.384 1.324 16.422 2.416 17.19 3.76C17.97 5.152 18.36 6.652 18.36 8.26ZM16.596 8.26C16.596 9.544 16.302 10.744 15.714 11.86C15.138 12.976 14.352 13.906 13.356 14.65L14.418 16.378L13.266 17.08L12.204 15.352C11.088 15.928 9.888 16.216 8.604 16.216C6.42 16.216 4.548 15.436 2.988 13.876C1.428 12.316 0.648 10.444 0.648 8.26C0.648 6.064 1.428 4.186 2.988 2.626C4.548 1.054 6.42 0.268 8.604 0.268C10.8 0.268 12.678 1.054 14.238 2.626C15.81 4.186 16.596 6.064 16.596 8.26ZM15.228 8.26C15.228 6.436 14.58 4.882 13.284 3.598C11.988 2.302 10.428 1.654 8.604 1.654C6.792 1.654 5.238 2.302 3.942 3.598C2.646 4.882 1.998 6.436 1.998 8.26C1.998 10.072 2.646 11.626 3.942 12.922C5.238 14.206 6.792 14.848 8.604 14.848C9.624 14.848 10.578 14.632 11.466 14.2L10.494 12.616L11.646 11.896L12.636 13.498C13.44 12.874 14.07 12.106 14.526 11.194C14.994 10.27 15.228 9.292 15.228 8.26ZM9.306 3.13C7.89 3.214 6.684 3.778 5.688 4.822C4.692 5.866 4.194 7.102 4.194 8.53C4.194 10.33 4.926 11.776 6.39 12.868C7.182 13.324 8.016 13.576 8.892 13.624H8.604C7.608 13.624 6.69 13.372 5.85 12.868C5.058 12.388 4.422 11.74 3.942 10.924C3.474 10.108 3.24 9.22 3.24 8.26C3.24 6.772 3.762 5.5 4.806 4.444C5.862 3.388 7.128 2.86 8.604 2.86C8.676 2.86 8.91 2.95 9.306 3.13ZM41.07 9.79C41.07 11.05 40.758 12.244 40.134 13.372C39.522 14.452 38.7 15.334 37.668 16.018H37.11C38.154 15.346 38.982 14.458 39.594 13.354C40.218 12.25 40.53 11.062 40.53 9.79V0.483999H41.07V9.79ZM39.288 9.79C39.288 11.494 38.676 12.958 37.452 14.182C36.24 15.394 34.782 16 33.078 16C31.362 16 29.892 15.394 28.668 14.182C27.456 12.958 26.85 11.494 26.85 9.79V0.483999H28.218V9.79C28.218 11.122 28.692 12.268 29.64 13.228C30.588 14.176 31.734 14.65 33.078 14.65C34.398 14.65 35.538 14.176 36.498 13.228C37.458 12.268 37.938 11.122 37.938 9.79V0.483999H39.288V9.79ZM33.348 13.408H33.078C32.082 13.408 31.224 13.054 30.504 12.346C29.784 11.638 29.424 10.786 29.424 9.79V0.483999H30.936L29.982 9.79C29.982 10.726 30.306 11.542 30.954 12.238C31.614 12.934 32.412 13.324 33.348 13.408ZM57.4734 3.4H54.1254L52.1634 8.818V3.04H56.9334V0.483999H57.4734V3.4ZM56.3394 16H49.5714V0.483999H55.7994V1.834H50.9574V10.06H55.8354V11.41H50.9574V14.65H56.3394V16ZM57.4734 12.652H52.7214V13.408H52.1634V12.292H56.9334V8.818H57.4734V12.652ZM57.9954 16.018H57.4374V13.408H57.9954V16.018ZM73.6561 3.076C73.4641 3.076 73.2781 3.094 73.0981 3.13V0.483999H73.6561V3.076ZM74.8261 12.238C74.8261 13.762 74.2501 15.022 73.0981 16.018H72.5581C73.7101 15.022 74.2861 13.762 74.2861 12.238C74.2861 10.93 73.8541 9.802 72.9901 8.854L70.7581 6.406C70.3381 5.938 70.1281 5.422 70.1281 4.858C70.1281 4.33 70.3021 3.904 70.6501 3.58C71.0101 3.244 71.4541 3.076 71.9821 3.076H72.5761V3.148C71.6041 3.388 71.1181 4.048 71.1181 5.128C71.1181 5.56 71.2981 5.986 71.6581 6.406L73.7281 8.854C74.4601 9.718 74.8261 10.846 74.8261 12.238ZM73.0621 12.238C73.0621 13.27 72.6901 14.158 71.9461 14.902C71.2141 15.634 70.3321 16 69.3001 16C68.1841 16 67.2481 15.586 66.4921 14.758L67.5181 13.84C67.9981 14.38 68.5921 14.65 69.3001 14.65C69.9601 14.65 70.5241 14.416 70.9921 13.948C71.4601 13.468 71.6941 12.898 71.6941 12.238C71.6941 11.614 71.4841 11.068 71.0641 10.6L68.8321 8.134C67.9681 7.174 67.5361 6.082 67.5361 4.858C67.5361 3.622 67.9681 2.584 68.8321 1.744C69.7081 0.903999 70.7641 0.483999 72.0001 0.483999V1.834C71.1361 1.834 70.3981 2.122 69.7861 2.698C69.1861 3.274 68.8861 3.994 68.8861 4.858C68.8861 5.758 69.1981 6.55 69.8221 7.234L72.0721 9.682C72.7321 10.402 73.0621 11.254 73.0621 12.238Z" fill="white"/>
</svg>
