<svg width="74" height="18" viewBox="0 0 74 18" fill="none" xmlns="http://www.w3.org/2000/svg">
<path d="M12.6 4.076H12.042V1.484H12.6V4.076ZM11.124 4.076L8.262 5.498V17H7.704V4.076H11.124ZM3.852 4.634H0.648V4.076H3.852V4.634ZM10.944 2.834H6.48V17H5.13V2.834H0.648V1.484H10.944V2.834ZM24.7919 1.466L24.2519 17H23.6939V1.466H24.7919ZM22.4519 17H21.1019V1.466H22.4519V17ZM50.9881 9.26C50.9881 10.868 50.5981 12.368 49.8181 13.76C49.0501 15.104 48.0061 16.19 46.6861 17.018H46.1461C47.4541 16.19 48.4921 15.104 49.2601 13.76C50.0401 12.368 50.4301 10.868 50.4301 9.26C50.4301 7.652 50.0401 6.152 49.2601 4.76C48.5041 3.416 47.4721 2.324 46.1641 1.484H46.7041C48.0121 2.324 49.0501 3.416 49.8181 4.76C50.5981 6.152 50.9881 7.652 50.9881 9.26ZM49.2241 9.26C49.2241 11.444 48.4381 13.316 46.8661 14.876C45.3061 16.436 43.4281 17.216 41.2321 17.216C39.0361 17.216 37.1641 16.442 35.6161 14.894C34.0681 13.334 33.2941 11.456 33.2941 9.26C33.2941 7.064 34.0681 5.186 35.6161 3.626C37.1641 2.054 39.0361 1.268 41.2321 1.268C43.4281 1.268 45.3061 2.054 46.8661 3.626C48.4381 5.186 49.2241 7.064 49.2241 9.26ZM47.8381 9.26C47.8381 7.436 47.1901 5.882 45.8941 4.598C44.6101 3.302 43.0561 2.654 41.2321 2.654C39.4201 2.654 37.8661 3.302 36.5701 4.598C35.2861 5.882 34.6441 7.436 34.6441 9.26C34.6441 11.072 35.2861 12.626 36.5701 13.922C37.8661 15.206 39.4201 15.848 41.2321 15.848C43.0561 15.848 44.6101 15.206 45.8941 13.922C47.1901 12.626 47.8381 11.072 47.8381 9.26ZM41.9161 4.13C40.5001 4.214 39.2941 4.778 38.2981 5.822C37.3141 6.866 36.8221 8.102 36.8221 9.53C36.8221 11.33 37.5541 12.776 39.0181 13.868C39.8101 14.324 40.6441 14.576 41.5201 14.624H41.2321C39.7681 14.624 38.5081 14.102 37.4521 13.058C36.4081 12.002 35.8861 10.736 35.8861 9.26C35.8861 7.772 36.4081 6.5 37.4521 5.444C38.4961 4.388 39.7561 3.86 41.2321 3.86C41.3041 3.86 41.5321 3.95 41.9161 4.13ZM73.3385 17.018H72.7985V1.862H73.3385V17.018ZM69.0905 10.826L61.7105 1.862H62.2325L69.0905 10.178V10.826ZM71.6105 17.936L60.8105 4.652V17H59.4785V0.925999L70.2785 14.21V1.862H71.6105V17.936ZM63.2585 9.548L62.5385 17H62.0165V8.018L63.2585 9.548Z" fill="white"/>
</svg>
